<?xml version="1.0" standalone="no"?>
<!DOCTYPE svg PUBLIC "-//W3C//DTD SVG 20010904//EN"
 "http://www.w3.org/TR/2001/REC-SVG-20010904/DTD/svg10.dtd">
<svg version="1.0" xmlns="http://www.w3.org/2000/svg"
 width="300.000000pt" height="300.000000pt" viewBox="0 0 300.000000 300.000000"
 preserveAspectRatio="xMidYMid meet">
<metadata>
Created by potrace 1.14, written by Peter Selinger 2001-2017
</metadata>
<g transform="translate(0.000000,300.000000) scale(0.100000,-0.100000)"
fill="#000000" stroke="none">
<path d="M2095 2976 c-17 -17 -23 -31 -19 -48 3 -12 8 -46 11 -75 11 -107 -63
-166 -286 -229 -51 -14 -98 -27 -105 -28 -23 -4 -112 -41 -156 -64 -72 -39
-146 -99 -176 -145 -16 -23 -33 -45 -37 -48 -5 -3 -9 -10 -9 -15 -1 -11 -4
-23 -14 -49 -26 -70 -19 -144 14 -146 9 0 25 -2 34 -4 32 -6 65 32 78 87 14
58 56 124 99 156 50 36 214 110 261 117 21 3 237 79 245 86 5 5 17 9 27 9 10
0 18 3 18 8 0 4 13 13 29 20 40 18 87 67 111 116 38 80 10 245 -45 266 -39 15
-54 12 -80 -14z"/>
<path d="M2495 2846 c-16 -11 -20 -28 -22 -85 -4 -121 -50 -180 -174 -221 -35
-12 -73 -24 -84 -26 -11 -2 -33 -7 -50 -11 -16 -4 -32 -7 -35 -8 -3 -1 -21 -5
-40 -9 -65 -15 -145 -43 -200 -71 -58 -29 -170 -135 -170 -160 0 -8 -4 -15 -8
-15 -4 0 -13 -19 -20 -43 -22 -73 10 -115 79 -105 16 2 32 21 56 67 66 127
134 163 437 226 113 24 206 68 259 124 69 71 93 137 90 251 -1 46 -6 59 -28
77 -30 26 -63 29 -90 9z"/>
<path d="M57 1865 c-8 -22 7 -495 18 -590 1 -16 6 -57 9 -90 4 -33 8 -70 10
-82 3 -12 8 -43 12 -70 5 -26 9 -50 9 -53 2 -7 14 -57 27 -110 17 -70 57 -190
84 -248 13 -29 24 -55 24 -57 0 -3 25 -46 57 -97 32 -53 89 -124 134 -170 69
-69 75 -78 56 -83 -21 -4 -116 -15 -147 -16 -8 0 -40 -5 -70 -10 -30 -4 -71
-11 -90 -14 -70 -11 -130 -36 -130 -54 0 -34 154 -70 365 -86 39 -3 81 -8 94
-10 144 -26 1273 -26 1431 -1 14 3 57 8 95 11 39 4 86 9 105 11 126 12 260 50
260 73 0 6 -18 20 -40 31 -22 11 -40 19 -40 16 0 -2 -18 0 -40 5 -22 5 -57 12
-78 14 -20 3 -48 8 -62 10 -33 6 -159 18 -188 19 -19 0 -12 10 45 66 38 37 79
81 93 99 38 49 120 184 120 199 0 6 12 12 28 13 292 8 555 132 641 303 112
223 48 466 -156 602 -66 44 -205 99 -275 109 l-48 7 0 129 c0 116 -2 129 -17
130 -10 0 -539 1 -1175 2 -765 1 -1159 -1 -1161 -8z m640 -207 c-11 -60 -18
-92 -22 -97 -7 -12 -19 -167 -19 -241 1 -80 12 -255 19 -280 4 -16 14 -77 21
-125 2 -16 8 -48 14 -70 6 -22 12 -53 15 -70 3 -16 16 -70 30 -120 14 -49 28
-101 31 -114 3 -14 7 -28 10 -33 3 -5 9 -22 14 -38 8 -27 7 -29 -9 -21 -22 12
-124 113 -174 171 -36 43 -131 185 -133 199 0 3 -14 35 -32 71 -35 74 -78 200
-93 275 -6 28 -12 60 -15 72 -2 13 -7 38 -10 55 -7 41 -13 380 -7 391 2 4 86
7 185 7 l181 0 -6 -32z m1853 -335 c14 -13 27 -23 31 -23 21 0 64 -130 61
-185 -10 -179 -61 -236 -249 -279 -83 -18 -86 -19 -79 -8 3 5 7 19 9 33 3 13
10 42 15 64 6 22 13 58 17 80 3 22 8 56 11 75 3 19 7 46 10 60 4 28 21 193 23
232 1 16 6 15 64 -5 34 -12 73 -32 87 -44z"/>
</g>
</svg>
